<svg width="576" height="104" viewBox="0 0 576 104" fill="none" xmlns="http://www.w3.org/2000/svg">
<path d="M119.549 64.8168C119.795 67.1635 120.564 69.2014 121.856 70.9305C123.148 72.5979 124.839 73.8947 126.931 74.8211C129.084 75.6856 131.483 76.1179 134.128 76.1179C137.881 76.1179 140.956 75.4386 143.356 74.08C145.755 72.7214 146.954 70.6835 146.954 67.9663C146.954 66.1137 146.247 64.6625 144.832 63.6126C143.417 62.5011 141.541 61.6365 139.203 61.0189C136.866 60.3397 134.313 59.6912 131.545 59.0737C128.776 58.4561 125.977 57.746 123.148 56.9432C120.38 56.0786 117.827 54.9361 115.489 53.5158C113.152 52.0337 111.275 50.0884 109.86 47.68C108.446 45.2098 107.738 42.0604 107.738 38.2316C107.738 34.5881 108.815 31.346 110.968 28.5053C113.121 25.6028 116.104 23.3179 119.918 21.6505C123.794 19.9832 128.223 19.1495 133.206 19.1495C137.942 19.1495 142.187 20.1067 145.939 22.0211C149.753 23.9354 152.737 26.56 154.89 29.8947C157.104 33.1677 158.212 36.9347 158.212 41.1958H145.847C145.601 37.6758 144.401 34.9277 142.248 32.9516C140.157 30.9754 136.989 29.9874 132.744 29.9874C128.623 29.9874 125.455 30.7593 123.24 32.3032C121.087 33.847 120.01 35.8232 120.01 38.2316C120.01 40.2695 120.718 41.8751 122.133 43.0484C123.548 44.2218 125.424 45.1481 127.761 45.8274C130.099 46.5067 132.652 47.1242 135.42 47.68C138.25 48.2358 141.049 48.946 143.817 49.8105C146.585 50.6133 149.138 51.7249 151.476 53.1453C153.813 54.5039 155.689 56.3874 157.104 58.7958C158.519 61.1425 159.227 64.1993 159.227 67.9663C159.227 73.9565 156.981 78.6189 152.491 81.9537C148 85.2884 141.695 86.9558 133.575 86.9558C128.592 86.9558 124.132 85.9986 120.195 84.0842C116.258 82.1698 113.121 79.5453 110.783 76.2105C108.446 72.8758 107.185 69.0779 107 64.8168H119.549Z" fill="white"/>
<path d="M190.026 86.9558C184.736 86.9558 180.092 85.8133 176.093 83.5284C172.156 81.1818 169.08 77.9397 166.866 73.8021C164.713 69.6646 163.636 64.9404 163.636 59.6295C163.636 54.2568 164.713 49.5018 166.866 45.3642C169.08 41.2267 172.156 37.9846 176.093 35.6379C180.092 33.2912 184.767 32.1179 190.119 32.1179C195.409 32.1179 200.023 33.2912 203.959 35.6379C207.896 37.9846 210.941 41.2267 213.095 45.3642C215.309 49.5018 216.416 54.2568 216.416 59.6295C216.416 64.9404 215.309 69.6646 213.095 73.8021C210.941 77.9397 207.896 81.1818 203.959 83.5284C200.023 85.8133 195.378 86.9558 190.026 86.9558ZM190.119 76.4884C193.256 76.4884 195.901 75.7782 198.054 74.3579C200.207 72.8758 201.837 70.8688 202.944 68.3368C204.052 65.7432 204.605 62.8407 204.605 59.6295C204.605 56.3565 204.052 53.4232 202.944 50.8295C201.837 48.2358 200.207 46.2288 198.054 44.8084C195.901 43.3263 193.256 42.5853 190.119 42.5853C186.92 42.5853 184.244 43.3263 182.091 44.8084C179.938 46.2288 178.308 48.2358 177.2 50.8295C176.093 53.4232 175.539 56.3565 175.539 59.6295C175.539 62.8407 176.093 65.7432 177.2 68.3368C178.308 70.8688 179.938 72.8758 182.091 74.3579C184.244 75.7782 186.92 76.4884 190.119 76.4884Z" fill="white"/>
<path d="M270.952 63.7053C270.89 68.1516 269.845 72.1347 267.815 75.6547C265.785 79.1747 262.955 81.9537 259.325 83.9916C255.758 85.9677 251.544 86.9558 246.684 86.9558C241.394 86.9558 236.749 85.8133 232.751 83.5284C228.814 81.1818 225.738 77.9397 223.524 73.8021C221.37 69.6646 220.294 64.9404 220.294 59.6295C220.294 54.2568 221.37 49.5018 223.524 45.3642C225.738 41.2267 228.814 37.9846 232.751 35.6379C236.749 33.2912 241.394 32.1179 246.684 32.1179C251.359 32.1179 255.481 33.1677 259.049 35.2674C262.678 37.3053 265.508 39.9916 267.538 43.3263C269.629 46.5993 270.706 50.1502 270.767 53.9789H258.587C258.526 52.0646 258.064 50.2737 257.203 48.6063C256.403 46.8772 255.142 45.4877 253.42 44.4379C251.698 43.3263 249.452 42.7705 246.684 42.7705C243.362 42.7705 240.625 43.5116 238.472 44.9937C236.319 46.414 234.719 48.4211 233.674 51.0147C232.689 53.5467 232.197 56.4182 232.197 59.6295C232.197 62.7789 232.689 65.6197 233.674 68.1516C234.719 70.6835 236.319 72.6905 238.472 74.1726C240.625 75.593 243.362 76.3032 246.684 76.3032C249.514 76.3032 251.821 75.7165 253.605 74.5432C255.388 73.3698 256.711 71.826 257.572 69.9116C258.434 67.9972 258.895 65.9284 258.956 63.7053H270.952Z" fill="white"/>
<path d="M277.195 33.6H288.821V85.4737H277.195V33.6ZM276.641 16H289.282V28.7832H276.641V16Z" fill="white"/>
<path d="M329.728 55.8316H341.262V85.4737H329.728V55.8316ZM319.394 32.1179C326.591 32.1179 332.035 34.2484 335.726 38.5095C339.417 42.7705 341.262 48.5446 341.262 55.8316H329.728C329.728 53.2379 329.421 50.953 328.806 48.9768C328.252 46.939 327.206 45.3333 325.668 44.16C324.192 42.9867 322.1 42.4 319.394 42.4C315.826 42.4 313.119 43.3263 311.274 45.1789C309.428 47.0316 308.506 49.2547 308.506 51.8484H296.326C296.326 48.3902 297.217 45.1789 299.001 42.2147C300.847 39.1888 303.492 36.7495 306.937 34.8968C310.382 33.0442 314.534 32.1179 319.394 32.1179ZM330.743 53.0526L332.681 61.1116C324.807 60.6175 319.055 61.2968 315.426 63.1495C311.797 64.9404 309.982 67.2561 309.982 70.0968C309.982 72.2582 310.72 73.8639 312.196 74.9137C313.673 75.9635 315.58 76.4884 317.917 76.4884C319.886 76.4884 321.762 76.1179 323.546 75.3768C325.392 74.6358 326.868 73.4316 327.975 71.7642C329.144 70.0351 329.728 67.7811 329.728 65.0021L332.22 69.2632C332.035 72.7214 331.266 75.7782 329.913 78.4337C328.621 81.0891 326.745 83.1888 324.284 84.7326C321.885 86.2147 318.963 86.9558 315.518 86.9558C312.135 86.9558 309.121 86.3382 306.476 85.1032C303.83 83.8063 301.739 81.9537 300.201 79.5453C298.663 77.1368 297.894 74.2035 297.894 70.7453C297.894 67.4105 298.54 64.6625 299.832 62.5011C301.185 60.3397 303 58.6105 305.276 57.3137C307.552 56.0168 310.105 55.0905 312.935 54.5347C315.764 53.9172 318.717 53.5158 321.793 53.3305C324.869 53.1453 327.852 53.0526 330.743 53.0526Z" fill="white"/>
<path d="M348.956 16H360.583V85.4737H348.956V16Z" fill="white"/>
<path d="M395.982 86.9558C392.168 86.9558 388.969 86.2147 386.385 84.7326C383.802 83.2505 381.772 81.2435 380.295 78.7116V40.5474C381.895 37.8919 383.986 35.8232 386.57 34.3411C389.154 32.8589 392.291 32.1179 395.982 32.1179C400.842 32.1179 404.994 33.2912 408.439 35.6379C411.884 37.9846 414.529 41.2267 416.374 45.3642C418.281 49.5018 419.235 54.2568 419.235 59.6295C419.235 64.9404 418.281 69.6646 416.374 73.8021C414.529 77.9397 411.884 81.1818 408.439 83.5284C404.994 85.8133 400.842 86.9558 395.982 86.9558ZM368.669 104V33.6H380.295V104H368.669ZM394.136 76.4884C396.966 76.4884 399.365 75.7782 401.334 74.3579C403.302 72.8758 404.779 70.8688 405.763 68.3368C406.809 65.7432 407.331 62.8407 407.331 59.6295C407.331 56.3565 406.809 53.4232 405.763 50.8295C404.779 48.2358 403.302 46.2288 401.334 44.8084C399.365 43.3263 396.966 42.5853 394.136 42.5853C390.999 42.5853 388.415 43.3572 386.385 44.9011C384.355 46.3832 382.818 48.4211 381.772 51.0147C380.788 53.5467 380.295 56.4182 380.295 59.6295C380.295 62.7789 380.788 65.6505 381.772 68.2442C382.818 70.7761 384.355 72.7832 386.385 74.2653C388.415 75.7474 390.999 76.4884 394.136 76.4884Z" fill="white"/>
<path d="M457.53 55.8316H469.064V85.4737H457.53V55.8316ZM447.196 32.1179C454.393 32.1179 459.837 34.2484 463.528 38.5095C467.219 42.7705 469.064 48.5446 469.064 55.8316H457.53C457.53 53.2379 457.223 50.953 456.607 48.9768C456.054 46.939 455.008 45.3333 453.47 44.16C451.994 42.9867 449.902 42.4 447.196 42.4C443.628 42.4 440.921 43.3263 439.076 45.1789C437.23 47.0316 436.307 49.2547 436.307 51.8484H424.127C424.127 48.3902 425.019 45.1789 426.803 42.2147C428.649 39.1888 431.294 36.7495 434.739 34.8968C438.184 33.0442 442.336 32.1179 447.196 32.1179ZM458.545 53.0526L460.483 61.1116C452.609 60.6175 446.857 61.2968 443.228 63.1495C439.598 64.9404 437.784 67.2561 437.784 70.0968C437.784 72.2582 438.522 73.8639 439.998 74.9137C441.475 75.9635 443.382 76.4884 445.719 76.4884C447.688 76.4884 449.564 76.1179 451.348 75.3768C453.193 74.6358 454.67 73.4316 455.777 71.7642C456.946 70.0351 457.53 67.7811 457.53 65.0021L460.021 69.2632C459.837 72.7214 459.068 75.7782 457.715 78.4337C456.423 81.0891 454.547 83.1888 452.086 84.7326C449.687 86.2147 446.765 86.9558 443.32 86.9558C439.937 86.9558 436.922 86.3382 434.277 85.1032C431.632 83.8063 429.541 81.9537 428.003 79.5453C426.465 77.1368 425.696 74.2035 425.696 70.7453C425.696 67.4105 426.342 64.6625 427.634 62.5011C428.987 60.3397 430.802 58.6105 433.078 57.3137C435.354 56.0168 437.907 55.0905 440.736 54.5347C443.566 53.9172 446.519 53.5158 449.595 53.3305C452.67 53.1453 455.654 53.0526 458.545 53.0526Z" fill="white"/>
<path d="M477.132 33.6H488.758V85.4737H477.132V33.6ZM476.578 16H489.219V28.7832H476.578V16Z" fill="white"/>
<path d="M497.277 33.6H508.904V41.8442C509.581 40.1151 510.596 38.5404 511.949 37.12C513.364 35.6379 515.178 34.4337 517.393 33.5074C519.608 32.5811 522.345 32.1179 525.605 32.1179C528.927 32.1179 531.88 32.7972 534.463 34.1558C537.047 35.5144 539.077 37.7684 540.553 40.9179C542.091 44.0056 542.86 48.2049 542.86 53.5158V85.4737H531.234V54.72C531.234 52.3116 531.019 50.1811 530.588 48.3284C530.157 46.414 529.296 44.9319 528.004 43.8821C526.774 42.7705 524.929 42.2147 522.468 42.2147C520.315 42.2147 518.193 42.8323 516.101 44.0674C514.01 45.3025 512.287 47.2168 510.934 49.8105C509.581 52.4042 508.904 55.7698 508.904 59.9074V85.4737H497.277V33.6Z" fill="white"/>
<path d="M547.303 33.6H574.524V43.5116H547.303V33.6ZM554.131 20.6316H565.758V70.4674C565.758 72.1965 566.188 73.4933 567.05 74.3579C567.911 75.1607 569.203 75.5621 570.925 75.5621H576V85.4737H570.833C565.296 85.4737 561.113 84.1768 558.284 81.5832C555.515 78.9895 554.131 75.2842 554.131 70.4674V20.6316Z" fill="white"/>
<path d="M79.071 79.1164C72.6398 85.5476 62.2127 85.5476 55.7815 79.1164M67.3919 84C58.2503 84 50.8395 76.5892 50.8395 67.4476V21.5524M50.8395 21.5524C50.8395 12.4107 58.2503 5 67.3919 5C76.5335 5 83.9443 12.4107 83.9443 21.5524V67.4476M50.8395 21.5524V50.8897M83.9443 67.4476C83.9443 76.5892 76.5892 83.9442 67.4476 83.9442H21.5524C12.4108 83.9442 5 76.5335 5 67.3919C5 58.2502 12.4108 50.8395 21.5524 50.8395H67.4476C76.5892 50.8395 83.9443 58.306 83.9443 67.4476ZM79.1267 79.0606C85.5579 72.6294 85.5579 62.2024 79.1267 55.7712M84 67.4476C84 76.5 76.5892 84 67.4476 84M84 67.4476C84 58.306 76.5892 50.8952 67.4476 50.8952M84 67.4476C84 62.4891 81.7744 58 78.3653 55.0061M67.4476 84C58.306 84 50.8952 76.5892 50.8952 67.4476M67.4476 84C62.4616 84 58.0512 81.7954 55.0165 78.3079M67.4476 50.8952C71.6307 50.8952 75.4513 52.4469 78.3653 55.0061M67.4476 50.8952H50.8952V67.4476M79.1873 79.1164C72.7561 85.5476 62.2684 85.5476 55.8372 79.1164M79.1873 79.1164C85.6186 72.6852 85.5 62 79.1267 55.8269M79.1873 79.1164C72.7561 85.5476 61.6708 85.9552 55.0165 78.3079M79.1873 79.1164C85.6185 72.6852 85.5 61.5 78.3653 55.0061M50.8952 67.4476C50.8952 71.6033 52.0664 74.9174 55.0165 78.3079M43.1042 20.2926C36.7296 16.3191 28.1844 17.1313 22.6527 22.663C16.2215 29.0942 16.2215 39.5213 22.6527 45.9525M43.1042 20.2926C44.1408 20.9387 45.1199 21.7114 46.0194 22.6108M43.1042 20.2926C40.5609 18.7 37.5539 17.7794 34.3318 17.7794C25.1902 17.7794 17.7794 25.1902 17.7794 34.3318C17.7794 43.4734 25.1902 50.8842 34.3318 50.8842H50.8842V34.3318C50.8842 29.7525 49.0246 25.6075 46.0194 22.6108M43.1042 20.2926C44.1622 20.955 45.1399 21.7338 46.0194 22.6108" stroke="white" stroke-width="10"/>
</svg>
